USFL
nRows=112
nColumns=2
inDegrees=yes
endheader
time	soleus_r	
2.8629	 49.505929	
2.93448	 49.501939	
3.00605	 49.496745	
3.07762	 49.512399	
3.14919	 49.490490	
3.22077	 49.516808	
3.29234	 49.458065	
3.36391	 49.332956	
3.43548	 49.330684	
3.50706	 49.322945	
3.57863	 49.294694	
3.6502	 49.265508	
3.72177	 49.279370	
3.79335	 49.260740	
3.86492	 49.280848	
3.93649	 49.349719	
4.00806	 49.461106	
4.07964	 49.486318	
4.15121	 49.450200	
4.22278	 49.425417	
4.29435	 49.408569	
4.36593	 49.394665	
4.4375	 49.375108	
4.50907	 49.395107	
4.58065	 49.334866	
4.65222	 49.295067	
4.72379	 49.253046	
4.79536	 49.231686	
4.86694	 49.082079	
4.93851	 49.077264	
5.01008	 49.065453	
5.08165	 49.096612	
5.15323	 49.123036	
5.2248	 49.160279	
5.29637	 49.237954	
5.36794	 49.058408	
5.43952	 49.009485	
5.51109	 44.251252	
5.58266	 43.279126	
5.65423	 39.690946	
5.72581	 38.929247	
5.79738	 39.348349	
5.86895	 39.459255	
5.94052	 35.595659	
6.0121	 36.336995	
6.08367	 36.410195	
6.15524	 36.501864	
6.22681	 35.665231	
6.29839	 35.920023	
6.36996	 35.802921	
6.44153	 35.793242	
6.5131	 35.922779	
6.58468	 35.847666	
6.65625	 35.321766	
6.72782	 35.359568	
6.7994	 35.317241	
6.87097	 34.969698	
6.94254	 34.957822	
7.01411	 34.926066	
7.08569	 34.724707	
7.15726	 34.653286	
7.22883	 34.996655	
7.3004	 35.014319	
7.37198	 35.148253	
7.44355	 35.598940	
7.51512	 35.277976	
7.58669	 35.278068	
7.65827	 35.298308	
7.72984	 35.620173	
7.80141	 35.640663	
7.87298	 35.761665	
7.94456	 35.554241	
8.01613	 35.593653	
8.0877	 35.250724	
8.15927	 35.375276	
8.23085	 35.327723	
8.30242	 35.342044	
8.37399	 34.750693	
8.44556	 34.829574	
8.51714	 35.558570	
8.58871	 35.854872	
8.66028	 35.820671	
8.73185	 35.979071	
8.80343	 35.662717	
8.875	 35.687728	
8.94657	 35.825878	
9.01815	 34.512289	
9.08972	 34.609674	
9.16129	 34.466204	
9.23286	 33.624945	
9.30444	 33.587703	
9.37601	 34.316745	
9.44758	 34.429127	
9.51915	 34.488728	
9.59073	 34.670902	
9.6623	 34.191409	
9.73387	 34.505893	
9.80544	 34.928306	
9.87702	 33.758238	
9.94859	 34.063880	
10.0202	 33.678281	
10.0917	 33.003511	
10.1633	 32.909953	
10.2349	 33.009894	
10.3065	 28.636878	
10.378	 28.585943	
10.4496	 30.954099	
10.5212	 30.151811	
10.5927	 29.931499	
10.6643	 33.019747	
10.7359	 34.577030	
10.8075	 31.809251	
